<svg width="248" height="248" viewBox="0 0 248 248" fill="none" xmlns="http://www.w3.org/2000/svg">
<circle cx="124.004" cy="124.004" r="121.004" fill="#F7F7C4" stroke="#70CF00" stroke-width="6"/>
<path d="M124.556 39.8262L124.087 38.562L123.618 39.8262L99.8758 103.851H23H21.2835L22.7315 104.773L84.866 144.327L61.143 208.299L60.626 209.693L61.8803 208.895L124.087 169.295L186.294 208.895L187.548 209.693L187.031 208.299L163.308 144.327L225.443 104.773L226.891 103.851H225.174H148.298L124.556 39.8262Z" fill="#70CF00" stroke="black"/>
<path d="M124.087 40L147.95 104.351H225.174L162.699 144.122L186.562 208.473L124.087 168.702L61.6118 208.473L85.4752 144.122L23 104.351H100.224L124.087 40Z" fill="#70CF00" stroke="#70CF00" stroke-width="2"/>
</svg>
