<svg width="334" height="413" viewBox="0 0 334 413" fill="none" xmlns="http://www.w3.org/2000/svg">
<path fill-rule="evenodd" clip-rule="evenodd" d="M205.303 277.763C203.797 274.556 200.571 272.508 197.028 272.508H4.04688L69.7813 412.342H268.568C268.568 412.342 217.261 303.2 205.303 277.763Z" fill="#70CF00"/>
<path d="M71.6428 298.493L66.5592 305.948L200.977 397.61L206.061 390.155L71.6428 298.493Z" fill="#040B17"/>
<path d="M156.776 300.108L107.857 391.773L115.817 396.021L164.736 304.356L156.776 300.108Z" fill="#040B17"/>
<path fill-rule="evenodd" clip-rule="evenodd" d="M90.1638 272.508H4.04687C4.04687 272.508 2.31266 268.819 0.535835 265.039C-0.285568 263.293 -0.155873 261.247 0.8786 259.617C1.91307 257.988 3.70966 257 5.63965 257C24.262 257 66.7081 257 79.2935 257C81.4786 257 83.4672 258.264 84.3967 260.241C86.5342 264.787 90.1638 272.508 90.1638 272.508Z" fill="#70CF00"/>
<path fill-rule="evenodd" clip-rule="evenodd" d="M262.315 103.451C266.255 105.623 269.959 110.635 273.723 110.506L237.701 116.841L237.181 149.626C266.89 147.261 290.781 146.415 309.967 136.271C316.065 133.031 320.176 126.997 320.96 120.137C321.329 117.051 321.703 113.773 321.996 111.207C322.37 107.941 321.104 104.701 318.617 102.553C307.45 92.9529 286.624 85.3179 273.723 76.4539" fill="#D96063"/>
<path d="M273.338 109.854C278.531 109.666 282.891 110.593 286.312 112.616L285.98 113.829C285.868 113.829 285.754 113.799 285.65 113.738C282.445 111.845 278.324 110.983 273.386 111.157L273.338 109.854Z" fill="#0F3560"/>
<path fill-rule="evenodd" clip-rule="evenodd" d="M249.476 376.491L281.887 411.946H159.793L181.555 378.085L249.476 376.491Z" fill="black"/>
<path d="M294.559 76.1149L266.354 54.2639C264.184 52.5849 261.247 52.3829 258.869 53.7519L246.709 60.7489L246.06 59.6189L258.218 52.6219C261.054 50.9879 264.561 51.2269 267.152 53.2329L295.357 75.0849L294.559 76.1149Z" fill="#0F3560"/>
<path d="M287.108 56.5439L273.526 43.2729C271.694 41.4809 268.949 40.8849 266.538 41.7519L258.342 44.7029L257.901 43.4759L266.097 40.5249C268.977 39.4899 272.251 40.2019 274.437 42.3399L288.019 55.6099L287.108 56.5439Z" fill="#0F3560"/>
<path d="M147.03 213.41L143.693 200.279C143.438 199.276 144.417 198.401 145.385 198.766L147.882 199.707C149.04 200.143 149.985 201.01 150.52 202.127L155.401 212.326L147.03 213.41Z" fill="#D96063"/>
<path d="M143.936 220.231L125.864 208.542C125.023 207.939 125.207 206.64 126.182 206.294L128.698 205.404C129.865 204.991 131.146 205.045 132.274 205.554L147.113 211.026L143.936 220.231Z" fill="#D96063"/>
<path fill-rule="evenodd" clip-rule="evenodd" d="M160.456 129.837C134.25 137.179 109.695 147.886 92.512 171.022C90.675 173.524 90.262 176.798 91.421 179.678C103.188 209.563 126.026 187.41 159.682 200.374C154.574 200.57 153.031 205.018 150.541 208.731C150.081 209.401 149.315 209.796 148.502 209.784C147.69 209.771 146.937 209.352 146.497 208.669C144.893 206.192 142.619 202.656 141.384 200.734C140.822 199.859 139.924 199.255 138.901 199.064C138.14 198.921 137.222 198.748 136.413 198.597C135.948 198.51 135.469 198.657 135.134 198.991C134.799 199.325 134.649 199.802 134.734 200.269C135.924 206.442 138.28 212.347 141.389 218.079C142.122 219.418 143.467 220.31 144.986 220.464C170.972 223.105 179.862 219.147 184.323 213.478L171.633 177.625C158.37 177.131 153.483 171.396 146.988 170.445L177.696 161.051L160.456 129.837Z" fill="#D96063"/>
<path d="M134.225 206.273L144.652 210.118" stroke="#0F3560" stroke-width="1.2712" stroke-miterlimit="10"/>
<path d="M142.751 202.861L146.784 209.031C147.583 210.135 149.235 210.955 151.365 207.434" stroke="#0F3560" stroke-width="1.2712" stroke-miterlimit="10"/>
<path d="M134.377 167.142C139.57 166.954 143.93 167.881 147.351 169.904L146.688 171.026C143.483 169.132 139.362 168.271 134.424 168.445L134.377 167.142Z" fill="#0F3560"/>
<path fill-rule="evenodd" clip-rule="evenodd" d="M244.548 203.485C254.639 231.434 264.693 271.674 258.663 383.728C230.593 397.319 198.739 398.114 175.683 383.728C159.476 307.898 161.181 260.421 166.42 209.509C192.587 223.351 215.555 220.558 244.548 203.485Z" fill="black"/>
<path d="M201.154 238.519L224.873 235.413L225.043 236.706L201.324 239.812C201.295 239.816 201.267 239.818 201.238 239.818L201.154 238.519Z" fill="#EFEFEF"/>
<path d="M215.029 237.435L213.725 237.445L214.995 394.224L216.299 394.214L215.029 237.435Z" fill="#EFEFEF"/>
<path fill-rule="evenodd" clip-rule="evenodd" d="M166.419 209.509C168.775 186.612 171.847 163.02 174.323 135.843C174.899 129.452 178.353 123.671 183.706 120.134C200.101 109.349 216.042 112.679 228.603 121.779C227.295 164.732 235.936 179.633 244.548 203.485C215.555 220.558 192.587 223.351 166.419 209.509Z" fill="#70CF00"/>
<path fill-rule="evenodd" clip-rule="evenodd" d="M191.126 116.367L153.911 129.837L164.758 168.843L195.435 154.29L191.126 116.367Z" fill="#70CF00"/>
<path fill-rule="evenodd" clip-rule="evenodd" d="M209.917 113.384H246.388L242.922 154.224L211.118 154.893L209.917 113.384Z" fill="#70CF00"/>
<path d="M231.282 165.996C229.517 158.02 228.454 149.541 228.032 140.076L229.334 140.018C229.753 149.408 230.807 157.813 232.556 165.715L231.282 165.996Z" fill="#0F3560"/>
<path fill-rule="evenodd" clip-rule="evenodd" d="M202.22 115.548C207.958 114.751 212.863 116.243 213.171 118.873C213.485 121.496 209.081 124.272 203.348 125.069C197.611 125.86 192.707 124.367 192.392 121.746C192.084 119.116 196.488 116.34 202.22 115.548Z" fill="#D96063"/>
<path fill-rule="evenodd" clip-rule="evenodd" d="M202.737 83.8508C209.937 80.3688 217.944 82.1718 220.616 87.8758C223.286 93.5748 219.612 101.031 212.411 104.513C205.211 107.995 197.198 106.192 194.534 100.493C191.862 94.7898 195.538 87.3328 202.737 83.8508Z" fill="#D96063"/>
<path fill-rule="evenodd" clip-rule="evenodd" d="M203.441 85.5458C202.352 86.3698 199.557 88.4118 199.855 90.6578C199.907 91.0438 199.838 91.4478 199.829 91.8338C199.819 92.3148 199.569 92.7578 199.16 93.0358C198.749 93.3138 195.813 92.3188 195.339 92.1698H195.338C194.893 92.0278 194.403 92.1178 194.041 92.4028C193.677 92.6868 193.641 93.1338 193.549 93.5738C193.149 95.4958 193.893 99.2948 194.535 100.493C184.788 89.2058 194.631 77.1288 209.131 77.2128C207.771 78.0308 206.808 78.9548 206.272 79.8768C211.218 78.4388 222.66 81.3288 221.488 91.8048C221.043 88.8678 219.963 86.7578 216.682 85.0118C211.64 82.3268 205.625 83.8938 203.441 85.5458Z" fill="#0F3560"/>
<path fill-rule="evenodd" clip-rule="evenodd" d="M210.312 99.3628L209.897 119.664C205.037 123.219 200.242 123.163 195.527 119.664L195.938 99.5038L210.312 99.3628Z" fill="#D96063"/>
<path fill-rule="evenodd" clip-rule="evenodd" d="M198.954 93.8958C197.031 92.2438 194.555 91.9628 193.426 93.2688C192.303 94.5688 192.944 96.9648 194.867 98.6168C196.782 100.273 199.259 100.556 200.389 99.2488" fill="#D96063"/>
<path d="M200.757 99.5689C200.198 100.216 199.367 100.56 198.383 100.56C198.215 100.56 198.042 100.55 197.866 100.529C196.725 100.399 195.546 99.8499 194.546 98.9859C193.299 97.9149 192.494 96.4779 192.395 95.1449C192.33 94.2829 192.559 93.5239 193.057 92.9479C194.359 91.4399 197.148 91.6989 199.273 93.5239L198.635 94.2659C196.949 92.8169 194.731 92.5049 193.796 93.5869C193.473 93.9619 193.325 94.4749 193.37 95.0719C193.45 96.1519 194.129 97.3379 195.185 98.2439C196.039 98.9819 197.03 99.4479 197.977 99.5569C198.857 99.6569 199.58 99.4339 200.018 98.9289L200.757 99.5689Z" fill="#0F3560"/>
<path d="M198.247 97.4078C198.393 97.2398 198.41 97.0168 198.399 96.8598C198.366 96.3998 198.056 95.8678 197.593 95.4708C196.88 94.8598 195.932 94.6898 195.567 95.1108L194.83 94.4678C195.572 93.6168 197.065 93.7308 198.229 94.7278C198.894 95.2968 199.321 96.0668 199.374 96.7888C199.41 97.2808 199.275 97.7168 198.984 98.0508L198.247 97.4078Z" fill="#0F3560"/>
<path d="M196.237 96.0569L197.569 94.7509C197.762 94.5619 198.071 94.5658 198.26 94.7578C198.449 94.9508 198.445 95.2599 198.252 95.4489L196.92 96.7549L196.237 96.0569Z" fill="#0F3560"/>
<path d="M206.204 99.4899C211.248 96.8439 216.053 96.3619 217.378 98.3689L216.563 98.9079C215.676 97.5649 211.485 97.8249 206.659 100.356C206.586 100.394 206.509 100.412 206.432 100.412L206.204 99.4899Z" fill="#0F3560"/>
<path d="M213.564 91.2408C213.653 91.6768 213.907 92.0499 214.278 92.2899C214.655 92.5339 215.112 92.6148 215.561 92.5128C216.486 92.3048 217.082 91.3898 216.888 90.4738L217.845 90.2719C218.149 91.7089 217.219 93.1418 215.775 93.4668C215.576 93.5118 215.376 93.5338 215.177 93.5338C214.672 93.5338 214.179 93.3899 213.747 93.1109C213.154 92.7269 212.748 92.1329 212.605 91.4379L213.564 91.2408Z" fill="#0F3560"/>
<path d="M206.771 92.7788C206.863 93.2158 207.117 93.5888 207.488 93.8278C207.867 94.0728 208.324 94.1538 208.776 94.0508C209.698 93.8388 210.293 92.9238 210.101 92.0118L211.058 91.8098C211.36 93.2408 210.433 94.6748 208.993 95.0058C208.792 95.0498 208.592 95.0718 208.393 95.0718C207.885 95.0728 207.39 94.9278 206.959 94.6498C206.366 94.2668 205.96 93.6728 205.815 92.9778L206.771 92.7788Z" fill="#0F3560"/>
<path d="M203.608 92.7659C204.139 91.2229 205.012 89.6729 207.779 88.7769L208.18 90.0168C206.074 90.6978 205.341 91.7358 204.842 93.1888L203.608 92.7659Z" fill="#0F3560"/>
<path d="M214.077 87.4048C216.969 87.2258 218.312 88.3698 219.322 89.6278L218.814 90.6878C218.624 90.6878 218.435 90.6048 218.306 90.4448C217.365 89.2738 216.339 88.5728 214.155 88.7068L214.077 87.4048Z" fill="#0F3560"/>
<path d="M201.305 105.325C204.662 106.253 208.633 105.797 212.198 104.073L212.624 104.954C210.139 106.155 207.463 106.772 204.901 106.772C203.571 106.772 202.271 106.605 201.046 106.267L201.305 105.325Z" fill="#0F3560"/>
<path fill-rule="evenodd" clip-rule="evenodd" d="M240.632 93.3708C239.103 92.4788 238.134 90.8458 238.109 89.0498C238.07 85.3068 240.413 82.2138 242.859 81.6348C239.508 77.9248 242.924 71.4358 249.513 70.9508L249.556 70.9378C249.634 70.4868 249.825 70.0508 250.127 69.6768L250.552 69.1498C253.381 65.6398 258.483 65.0048 262.087 67.7118L273.723 76.4528L267.545 102.093L255.876 122.226C254.309 122.226 252.812 121.583 251.733 120.449C250.653 119.315 250.086 117.787 250.165 116.222L250.718 105.143C250.718 105.143 250.977 104.901 250.727 104.848C248.355 104.347 246.396 103.749 244.371 103.204C242.782 102.802 241.362 101.903 240.32 100.636C238.356 98.3568 238.059 95.8658 240.632 93.3708C240.637 93.3738 240.644 93.3778 240.649 93.3798V93.3788L240.632 93.3708Z" fill="#D96063"/>
<path fill-rule="evenodd" clip-rule="evenodd" d="M250.716 105.143C250.716 105.143 250.408 111.301 250.163 116.222C250.085 117.787 250.652 119.315 251.731 120.449C252.81 121.583 254.307 122.226 255.874 122.226L267.543 102.093" fill="#D96063"/>
<path d="M251.368 105.175L250.815 116.255C250.745 117.635 251.252 118.999 252.204 119.999C253.072 120.911 254.259 121.469 255.508 121.56L266.979 101.765L268.108 102.419L256.44 122.552C256.323 122.753 256.108 122.877 255.876 122.877C254.139 122.877 252.457 122.156 251.26 120.897C250.063 119.64 249.426 117.923 249.513 116.189L250.066 105.109L251.368 105.175Z" fill="#0F3560"/>
<path d="M248.789 103.728C250.419 104.14 251.888 104.441 253.41 104.676C253.98 104.771 254.543 104.553 254.895 104.107C255.249 103.662 255.332 103.061 255.114 102.537C254.893 101.992 254.679 101.477 254.502 101.054L254.423 100.865C254.257 100.466 253.948 100.147 253.551 99.9668L240.338 93.9828L240.877 92.7948L254.09 98.7788C254.788 99.0948 255.333 99.6578 255.626 100.362L255.704 100.55C255.882 100.977 256.1 101.497 256.32 102.04C256.719 102.996 256.566 104.101 255.917 104.916C255.372 105.607 254.541 106 253.674 106C253.518 106 253.362 105.987 253.204 105.961C251.648 105.721 250.142 105.412 248.471 104.99L248.789 103.728Z" fill="#0F3560"/>
<path d="M238.761 89.0409C238.785 90.7499 239.806 92.3089 241.362 93.0139C244.933 94.6349 251.996 97.8329 256.285 99.7749C256.797 100.007 257.399 99.9459 257.855 99.6139C258.311 99.2819 258.553 98.7269 258.488 98.1669L258.313 96.6659C258.265 96.2429 258.063 95.8579 257.744 95.5769L242.428 82.1259C242.157 81.8879 242.13 81.4769 242.368 81.2059C242.606 80.9349 243.018 80.9089 243.287 81.1459L258.604 94.5969C259.167 95.0919 259.523 95.7729 259.608 96.5159L259.783 98.0159C259.902 99.0419 259.458 100.058 258.624 100.666C258.126 101.031 257.531 101.218 256.932 101.218C256.53 101.218 256.125 101.134 255.747 100.963C251.458 99.0209 244.395 95.8219 240.824 94.2009C238.81 93.2889 237.488 91.2699 237.457 89.0589L238.761 89.0409Z" fill="#0F3560"/>
<path d="M242.243 77.6398C242.075 78.9868 242.455 80.2168 243.342 81.1988L256.987 93.1768C257.362 93.5058 257.875 93.6378 258.368 93.5268C258.856 93.4158 259.266 93.0748 259.463 92.6138L260.397 90.4298C260.631 89.8828 260.568 89.2648 260.227 88.7778L249.295 73.1068C249.276 73.0798 249.26 73.0508 249.244 73.0218C248.946 72.4148 248.817 71.7058 248.862 70.9148C248.883 70.5548 249.158 70.2608 249.551 70.3008C249.91 70.3218 250.185 70.6288 250.165 70.9888C250.134 71.5418 250.209 72.0068 250.395 72.4058L261.296 88.0328C261.896 88.8908 262.007 89.9798 261.596 90.9438L260.661 93.1288C260.299 93.9728 259.549 94.5968 258.655 94.7998C258.446 94.8468 258.234 94.8708 258.024 94.8708C257.333 94.8708 256.654 94.6208 256.127 94.1578L242.428 82.1268C241.243 80.8208 240.737 79.1888 240.951 77.4798L242.243 77.6398Z" fill="#0F3560"/>
<path d="M251.057 69.5638L250.636 70.0858C250.048 70.8148 250.013 71.8568 250.547 72.6208L258.951 84.6458C259.236 85.0528 259.702 85.3028 260.198 85.3138C260.7 85.3168 261.173 85.0978 261.477 84.7038L262.198 83.7688C262.519 83.3518 262.631 82.7978 262.495 82.2898L260.707 75.5288C260.558 74.9658 260.673 74.3748 261.021 73.9078C261.37 73.4428 261.902 73.1658 262.484 73.1468L263.721 73.1108L263.761 74.4138L262.522 74.4498C262.342 74.4558 262.175 74.5428 262.066 74.6878C261.956 74.8338 261.921 75.0178 261.968 75.1938L263.756 81.9548C263.994 82.8518 263.798 83.8278 263.231 84.5638L262.51 85.4988C261.969 86.2018 261.122 86.6168 260.236 86.6168C260.214 86.6168 260.191 86.6158 260.169 86.6158C259.259 86.5948 258.404 86.1378 257.883 85.3908L249.479 73.3668C248.614 72.1298 248.671 70.4438 249.62 69.2668L250.047 68.7368L251.057 69.5638Z" fill="#0F3560"/>
<path d="M54.79 179.79L49.491 169.786L21.262 181.898L54.79 179.79Z" fill="#0F3560"/>
<path d="M30.3641 134.819L14.4561 177.365L44.0711 148.147L30.3641 134.819Z" fill="#0F3560"/>
<path d="M4.20001 142.401L3 170.324L16.482 147.249L4.20001 142.401Z" fill="#0F3560"/>
<path d="M71.44 117.32C71.666 116.275 72.036 115.403 72.552 114.702C73.067 114.001 73.654 113.4 74.309 112.896C74.964 112.393 75.655 111.946 76.384 111.558C77.112 111.169 77.8 110.772 78.449 110.366C79.096 109.96 79.652 109.498 80.114 108.982C80.576 108.465 80.891 107.819 81.059 107.042C81.336 105.757 81.053 104.603 80.21 103.58C79.366 102.556 78.047 101.851 76.254 101.463C74.648 101.116 73.197 101.083 71.904 101.363C70.609 101.644 69.435 102.216 68.38 103.081L65.9 100.36C67.331 99.1838 69.002 98.3898 70.913 97.9768C72.824 97.5628 74.943 97.6078 77.272 98.1108C79.2 98.5278 80.811 99.1768 82.105 100.059C83.399 100.942 84.326 101.997 84.888 103.225C85.449 104.453 85.568 105.817 85.244 107.316C85.001 108.44 84.618 109.366 84.097 110.095C83.575 110.822 82.98 111.437 82.312 111.937C81.643 112.437 80.95 112.89 80.232 113.295C79.515 113.7 78.83 114.113 78.179 114.532C77.527 114.952 76.958 115.445 76.472 116.012C75.985 116.579 75.647 117.304 75.455 118.188L71.44 117.32ZM71.518 126.877C70.768 126.715 70.201 126.327 69.816 125.711C69.431 125.096 69.314 124.44 69.464 123.743C69.626 122.994 70.007 122.432 70.606 122.057C71.206 121.682 71.879 121.576 72.63 121.739C73.379 121.9 73.944 122.274 74.321 122.86C74.699 123.446 74.806 124.115 74.645 124.863C74.494 125.56 74.123 126.11 73.531 126.514C72.938 126.919 72.267 127.039 71.518 126.877Z" fill="black"/>
<path d="M204.523 20.5228C204.797 19.4998 205.207 18.6378 205.756 17.9388C206.302 17.2398 206.914 16.6518 207.591 16.1748C208.267 15.6978 208.967 15.2748 209.693 14.9048C210.419 14.5358 211.102 14.1778 211.743 13.8328C212.383 13.4868 212.942 13.0968 213.421 12.6608C213.897 12.2248 214.222 11.6848 214.395 11.0428C214.677 9.98983 214.472 9.02683 213.783 8.15283C213.092 7.27883 212.031 6.64983 210.599 6.26583C209.225 5.89683 207.92 5.85383 206.686 6.13383C205.451 6.41383 204.347 6.97183 203.372 7.80683L198.9 3.27183C200.546 1.80283 202.551 0.811831 204.913 0.300831C207.274 -0.210169 209.931 -0.0701706 212.884 0.720829C215.076 1.30783 216.921 2.13983 218.419 3.21383C219.917 4.28983 220.979 5.55283 221.609 7.00583C222.238 8.45883 222.317 10.0618 221.847 11.8158C221.541 12.9558 221.096 13.9178 220.511 14.7008C219.925 15.4838 219.268 16.1228 218.541 16.6168C217.813 17.1108 217.06 17.5528 216.284 17.9388C215.506 18.3258 214.769 18.7078 214.073 19.0858C213.376 19.4628 212.767 19.8948 212.246 20.3818C211.723 20.8678 211.357 21.5068 211.145 22.2958L204.523 20.5228ZM204.906 32.4218C203.677 32.0928 202.775 31.4278 202.197 30.4278C201.62 29.4268 201.474 28.3858 201.765 27.3038C202.063 26.1928 202.707 25.3708 203.695 24.8368C204.684 24.3028 205.792 24.1998 207.021 24.5298C208.277 24.8658 209.194 25.5118 209.768 26.4638C210.343 27.4168 210.482 28.4488 210.184 29.5598C209.894 30.6418 209.256 31.4728 208.27 32.0548C207.284 32.6358 206.162 32.7588 204.906 32.4218Z" fill="black" fill-opacity="0.9"/>
<path fill-rule="evenodd" clip-rule="evenodd" d="M324.935 192.884C318.763 186.712 308.74 186.712 302.568 192.884C296.396 199.056 296.396 209.077 302.568 215.249C308.74 221.421 318.763 221.421 324.935 215.249C331.107 209.077 331.107 199.056 324.935 192.884ZM302.289 220.401C301.36 219.748 300.473 219.005 299.642 218.174C291.855 210.387 291.855 197.745 299.642 189.957C307.429 182.17 320.073 182.17 327.859 189.957C335.646 197.745 335.646 210.388 327.859 218.174C322.778 223.255 315.627 225.022 309.108 223.471L303.587 241.242L296.496 239.039L302.289 220.401Z" fill="black"/>
</svg>
