<svg width="1920" height="1080" viewBox="0 0 1920 1080" xmlns="http://www.w3.org/2000/svg"><path d="M2483.2587461986386,7.999999999999816C2509.2101187679673,102.20759040138142,2622.3897306979234,239.98914295266815,2587.940149623386,338.16792768308886C2553.4905685488484,436.3467124135096,2393.674901018496,522.7063494279222,2276.5612597514146,597.072708382524C2159.4476184843334,671.4390673371257,1998.0739211292944,795.897161177816,1885.2583020208995,784.3660814106996C1772.4426829125046,772.8350016435833,1705.4805504730068,620.8657217549044,1599.6675451010447,527.886229779826C1493.8545397290825,434.9067378047475,1307.92814900778,342.3534041287118,1250.380269789127,226.4891295602288C1192.832390570474,110.6248549917458,1219.9679064971422,-68.71342782487868,1254.380269789127,-167.29941763107203C1288.7926330811117,-265.88540743726537,1355.2071826233846,-332.57884294866506,1456.854449541036,-365.0268092769313C1558.5017164586875,-397.4747756051976,1732.266481911165,-326.48916595609813,1864.263871295036,-361.98721560066963C1996.261260678907,-397.4852652452411,2154.177445358866,-600.5000406236052,2248.838785844262,-578.0151071443604C2343.500126329658,-555.5301736651156,2393.161920815017,-324.74679924926085,2432.231914207413,-227.07761472520082C2471.301907599809,-129.4084302011408,2457.30737362931,-86.2075904013818,2483.2587461986386,7.999999999999816C2509.2101187679673,102.20759040138142,2622.3897306979234,239.98914295266815,2587.940149623386,338.16792768308886" fill="#aaff45"/></svg>